HIERARCHY
ROOT joint_Root
{
	OFFSET 0.0 0.0 0.0
	CHANNELS 6 Xposition Yposition Zposition Zrotation Xrotation Yrotation 
	JOINT Hips
	{
		OFFSET -0.726466 93.3139 -2.00062
		CHANNELS 6 Xposition Yposition Zposition Zrotation Xrotation Yrotation 
		JOINT Spine
		{
			OFFSET 15.7357 0.0 0.0
			CHANNELS 6 Xposition Yposition Zposition Zrotation Xrotation Yrotation 
			JOINT Chest
			{
				OFFSET 8.98455 -0.406207 0.0
				CHANNELS 6 Xposition Yposition Zposition Zrotation Xrotation Yrotation 
				JOINT Neck
				{
					OFFSET 16.3773 0.0 0.0
					CHANNELS 6 Xposition Yposition Zposition Zrotation Xrotation Yrotation 
					JOINT Head
					{
						OFFSET 6.45672 0.0 0.0
						CHANNELS 6 Xposition Yposition Zposition Zrotation Xrotation Yrotation 
						End Site
						{
							OFFSET 0.0 0.0 0.0
						}
					}
				}
				JOINT Shoulder_L
				{
					OFFSET 12.9942 -0.242716 4.98039
					CHANNELS 6 Xposition Yposition Zposition Zrotation Xrotation Yrotation 
					JOINT UpperArm_L
					{
						OFFSET 5.34809 0.0 0.0
						CHANNELS 6 Xposition Yposition Zposition Zrotation Xrotation Yrotation 
						JOINT LowerArm_L
						{
							OFFSET 24.3286 1.87007e-05 0.0
							CHANNELS 6 Xposition Yposition Zposition Zrotation Xrotation Yrotation 
							JOINT Hand_L
							{
								OFFSET 22.2916 0.0 0.0
								CHANNELS 6 Xposition Yposition Zposition Zrotation Xrotation Yrotation 
								End Site
								{
									OFFSET 0.0 0.0 0.0
								}
							}
						}
					}
				}
				JOINT Shoulder_R
				{
					OFFSET 12.9945 -0.242716 -4.98039
					CHANNELS 6 Xposition Yposition Zposition Zrotation Xrotation Yrotation 
					JOINT UpperArm_R
					{
						OFFSET -5.34813 0.0 0.0
						CHANNELS 6 Xposition Yposition Zposition Zrotation Xrotation Yrotation 
						JOINT LowerArm_R
						{
							OFFSET -24.3289 0.000322201 0.0
							CHANNELS 6 Xposition Yposition Zposition Zrotation Xrotation Yrotation 
							JOINT Hand_R
							{
								OFFSET -22.2915 -0.000108084 0.0
								CHANNELS 6 Xposition Yposition Zposition Zrotation Xrotation Yrotation 
								End Site
								{
									OFFSET 0.0 0.0 0.0
								}
							}
						}
					}
				}
			}
		}
		JOINT UpperLeg_L
		{
			OFFSET -2.19248 -6.46944 0.0
			CHANNELS 6 Xposition Yposition Zposition Zrotation Xrotation Yrotation 
			JOINT LowerLeg_L
			{
				OFFSET 39.0811 0.0 -1.23785e-05
				CHANNELS 6 Xposition Yposition Zposition Zrotation Xrotation Yrotation 
				JOINT Foot_L
				{
					OFFSET 40.9854 0.0 -1.26872e-05
					CHANNELS 6 Xposition Yposition Zposition Zrotation Xrotation Yrotation 
					JOINT Toes_L
					{
						OFFSET 11.7543 0.0 0.0
						CHANNELS 6 Xposition Yposition Zposition Zrotation Xrotation Yrotation 
						End Site
						{
							OFFSET 0.0 0.0 0.0
						}
					}
				}
			}
		}
		JOINT UpperLeg_R
		{
			OFFSET -2.19251 6.46944 0.0
			CHANNELS 6 Xposition Yposition Zposition Zrotation Xrotation Yrotation 
			JOINT LowerLeg_R
			{
				OFFSET -39.0811 -0.00228153 -0.0401928
				CHANNELS 6 Xposition Yposition Zposition Zrotation Xrotation Yrotation 
				JOINT Foot_R
				{
					OFFSET -40.9854 0.0 0.0
					CHANNELS 6 Xposition Yposition Zposition Zrotation Xrotation Yrotation 
					JOINT Toes_R
					{
						OFFSET -11.7543 0.0 0.0
						CHANNELS 6 Xposition Yposition Zposition Zrotation Xrotation Yrotation 
						End Site
						{
							OFFSET 0.0 0.0 0.0
						}
					}
				}
			}
		}
	}
}
MOTION
Frames:	8
Frame Time:	0.0333333
0.000000 0.000000 0.000000 0.000000 0.000000 -0.000000 1.304400 84.949300 34.623500 -89.669400 3.049330 177.160000 15.735700 0.000005 -0.000001 106.889000 82.366200 -105.394000 8.984550 -0.406207 -0.000000 6.802520 4.408480 2.727400 16.377300 -0.000001 -0.000001 -0.832283 -1.823040 0.326589 6.456720 -0.000001 -0.000000 -2.041020 -2.422460 -1.820500 12.994200 -0.242716 4.980390 -88.679100 -3.493600 -69.274500 5.348090 -0.000007 -0.000001 -69.930100 41.760200 4.423430 24.328600 0.000019 0.000005 6.667440 0.945497 -81.967800 22.291600 -0.000001 0.000005 4.050660 5.680880 -19.962400 12.994500 -0.242716 -4.980390 88.555300 3.953340 -69.907400 -5.348130 -0.000001 -0.000004 -52.199000 31.376100 -32.128500 -24.328900 0.000322 -0.000009 2.520250 -0.420788 -99.488500 -22.291500 -0.000108 -0.000004 24.009400 5.659650 -16.021100 -2.192480 -6.469440 -0.000000 176.737000 -2.698340 -35.404100 39.081100 -0.000007 -0.000012 -0.464646 -0.125071 105.067000 40.985400 -0.000006 -0.000013 10.480100 -7.258750 -51.465500 11.754300 -0.000000 0.000003 -0.006951 -0.079248 -19.802900 -2.192510 6.469440 -0.000001 -177.096000 8.813080 170.634000 -39.081100 -0.002282 -0.040193 0.160848 -0.144776 47.427100 -40.985400 0.000008 0.000006 13.662000 0.489544 -83.291200 -11.754300 -0.000006 -0.000006 -1.898260 -1.958790 -25.129900
0.000000 0.000000 0.000000 0.000000 0.000000 -0.000000 0.651381 88.151000 25.141700 -91.936900 4.895400 176.575000 15.735700 0.000005 -0.000001 116.079000 82.224600 -115.855000 8.984550 -0.406207 -0.000000 6.222200 6.813940 0.077664 16.377300 -0.000001 -0.000001 -0.222523 -1.705560 0.999531 6.456720 -0.000001 -0.000000 -1.466830 -4.455240 -0.177834 12.994200 -0.242716 4.980390 -88.084700 -4.697300 -67.788100 5.348090 -0.000007 -0.000001 -71.265900 42.751400 10.074400 24.328600 0.000019 0.000005 6.239670 0.445472 -85.932700 22.291600 -0.000001 0.000005 3.253580 5.678600 -19.118500 12.994500 -0.242716 -4.980390 88.955600 2.955290 -70.527500 -5.348130 -0.000001 -0.000004 -54.070800 32.633100 -33.069600 -24.328900 0.000322 -0.000009 0.772453 -0.180814 -103.176000 -22.291500 -0.000108 -0.000004 24.540600 5.656740 -15.695700 -2.192480 -6.469440 -0.000000 173.516000 -2.237870 -37.537500 39.081100 -0.000007 -0.000012 -0.250290 -0.003923 90.900000 40.985400 -0.000006 -0.000013 9.538420 -9.864630 -55.929000 11.754300 -0.000000 0.000003 -0.005723 -0.068303 -19.356400 -2.192510 6.469440 -0.000001 178.256000 7.969870 178.950000 -39.081100 -0.002282 -0.040193 0.098087 -0.118385 38.688500 -40.985400 0.000008 0.000006 12.759600 4.872880 -70.039900 -11.754300 -0.000006 -0.000006 -0.114388 -0.478934 -36.638200
0.000000 0.000000 0.000000 0.000000 0.000000 -0.000000 0.149950 91.515600 15.971700 -92.852500 5.883510 175.599000 15.735700 0.000005 -0.000001 121.487000 82.281400 -121.991000 8.984550 -0.406207 -0.000000 5.476590 8.054490 -1.395150 16.377300 -0.000001 -0.000001 0.178826 -1.404080 1.164460 6.456720 -0.000001 -0.000000 -1.300110 -5.659580 1.005590 12.994200 -0.242716 4.980390 -87.461000 -5.884090 -66.610000 5.348090 -0.000007 -0.000001 -73.918100 41.506800 15.703400 24.328600 0.000019 0.000005 5.388450 0.124894 -88.677100 22.291600 -0.000001 0.000005 3.106600 5.672740 -17.841100 12.994500 -0.242716 -4.980390 89.261400 2.117480 -70.765700 -5.348130 -0.000001 -0.000004 -55.350400 35.126900 -33.247700 -24.328900 0.000322 -0.000009 2.111650 -0.573985 -105.200000 -22.291500 -0.000108 -0.000004 22.457000 5.649920 -14.998400 -2.192480 -6.469440 -0.000000 172.478000 -1.704330 -36.944300 39.081100 -0.000007 -0.000012 -0.081876 0.028263 70.959600 40.985400 -0.000006 -0.000013 9.019190 -12.458300 -58.532800 11.754300 -0.000000 0.000003 -0.006666 -0.076777 -19.702100 -2.192510 6.469440 -0.000001 174.839000 9.575100 -176.040000 -39.081100 -0.002282 -0.040193 0.057031 -0.086949 31.715300 -40.985400 0.000008 0.000006 10.452000 11.030000 -50.675100 -11.754300 -0.000006 -0.000006 -0.247969 -0.719412 -47.808800
0.000000 0.000000 0.000000 0.000000 0.000000 -0.000000 0.052245 93.935900 6.848110 -91.298500 5.563450 175.847000 15.735700 0.000005 -0.000001 122.697000 82.169800 -122.982000 8.984550 -0.406207 -0.000000 5.480670 8.445960 -0.974677 16.377300 -0.000001 -0.000001 0.498040 -1.372240 1.070270 6.456720 -0.000001 -0.000000 -1.494110 -6.351330 1.675460 12.994200 -0.242716 4.980390 -86.764600 -7.449560 -66.442700 5.348090 -0.000007 -0.000001 -77.112000 38.532800 20.448000 24.328600 0.000019 0.000005 4.227780 -0.039704 -90.538100 22.291600 -0.000001 0.000005 3.449190 5.665450 -16.728300 12.994500 -0.242716 -4.980390 89.545100 1.324260 -71.040800 -5.348130 -0.000001 -0.000004 -56.777300 37.820000 -32.356000 -24.328900 0.000322 -0.000009 2.874460 -0.798685 -105.517000 -22.291500 -0.000108 -0.000004 20.201400 5.641170 -14.222200 -2.192480 -6.469440 -0.000000 174.705000 -1.803390 -31.790900 39.081100 -0.000007 -0.000012 0.010393 -0.009630 47.173800 40.985400 -0.000006 -0.000013 8.024970 -10.024100 -62.311900 11.754300 -0.000000 0.000003 -0.005668 -0.067794 -19.335700 -2.192510 6.469440 -0.000001 173.511000 12.018400 -171.823000 -39.081100 -0.002282 -0.040193 0.063698 -0.113763 27.961800 -40.985400 0.000008 0.000006 2.465040 14.122800 -33.355000 -11.754300 -0.000006 -0.000006 -0.080790 -0.394146 -32.940100
0.000000 0.000000 0.000000 0.000000 0.000000 -0.000000 0.537234 94.420800 -2.635320 -87.840600 5.742340 175.948000 15.735700 0.000005 -0.000001 125.730000 82.103500 -125.121000 8.984550 -0.406207 -0.000000 5.057460 9.189190 0.812265 16.377300 -0.000001 -0.000001 0.300019 -1.517300 0.820580 6.456720 -0.000001 -0.000000 -1.034630 -6.631910 1.637690 12.994200 -0.242716 4.980390 -86.077400 -9.098250 -66.556900 5.348090 -0.000007 -0.000001 -79.553700 35.802900 23.456100 24.328600 0.000019 0.000005 3.676940 -0.135763 -92.111900 22.291600 -0.000001 0.000005 3.380710 5.654270 -15.435900 12.994500 -0.242716 -4.980390 89.988000 0.035207 -71.164800 -5.348130 -0.000001 -0.000004 -58.864800 40.573100 -30.044100 -24.328900 0.000322 -0.000009 1.943570 -0.489640 -104.135000 -22.291500 -0.000108 -0.000004 19.801600 5.639730 -14.102900 -2.192480 -6.469440 -0.000000 179.185000 -2.840170 -25.865600 39.081100 -0.000007 -0.000012 0.019791 -0.042515 24.962000 40.985400 -0.000006 -0.000013 4.924800 -3.301000 -65.528000 11.754300 -0.000000 0.000003 -0.006134 -0.072053 -19.509300 -2.192510 6.469440 -0.000001 176.243000 10.448000 -170.004000 -39.081100 -0.002282 -0.040193 0.098438 -0.157131 31.193900 -40.985400 0.000008 0.000006 -1.137230 7.784620 -28.193400 -11.754300 -0.000006 -0.000006 -0.026626 -0.201562 -24.823000
0.000000 0.000000 0.000000 0.000000 0.000000 -0.000000 0.956221 93.688000 -12.250900 -85.057700 6.366380 175.865000 15.735700 0.000005 -0.000001 127.811000 82.194300 -126.507000 8.984550 -0.406207 -0.000000 4.510860 9.516890 2.233200 16.377300 -0.000001 -0.000001 0.204138 -1.355050 0.635368 6.456720 -0.000001 -0.000000 -0.970046 -6.439540 1.397920 12.994200 -0.242716 4.980390 -85.900300 -9.529100 -66.589400 5.348090 -0.000007 -0.000001 -80.220300 33.608500 23.995000 24.328600 0.000019 0.000005 3.843460 -0.209882 -93.121200 22.291600 -0.000001 0.000005 2.545950 5.643670 -14.436200 12.994500 -0.242716 -4.980390 90.155100 -0.457702 -71.273500 -5.348130 -0.000001 -0.000004 -60.503700 42.575800 -26.650600 -24.328900 0.000322 -0.000009 1.370200 -0.268298 -101.085000 -22.291500 -0.000108 -0.000004 19.637100 5.642440 -14.331900 -2.192480 -6.469440 -0.000000 -177.700000 -5.675100 -22.464500 39.081100 -0.000007 -0.000012 -0.004504 0.021028 12.086800 40.985400 -0.000006 -0.000013 -0.672749 1.778820 -68.288700 11.754300 -0.000000 0.000003 -0.007268 -0.081956 -19.913400 -2.192510 6.469440 -0.000001 -179.664000 6.091800 -170.308000 -39.081100 -0.002282 -0.040193 0.097137 -0.112145 39.927300 -40.985400 0.000008 0.000006 1.542200 0.918313 -32.323600 -11.754300 -0.000006 -0.000006 -0.026398 -0.200454 -24.777200
0.000000 0.000000 0.000000 0.000000 0.000000 -0.000000 0.873461 92.114100 -21.761500 -85.205200 5.761540 176.123000 15.735700 0.000005 -0.000001 123.437000 82.565500 -122.397000 8.984550 -0.406207 -0.000000 4.606470 8.149750 1.752400 16.377300 -0.000001 -0.000001 0.233736 -1.151720 0.583485 6.456720 -0.000001 -0.000000 -1.407560 -5.807370 1.759080 12.994200 -0.242716 4.980390 -86.274900 -8.700230 -66.712000 5.348090 -0.000007 -0.000001 -79.094600 31.807700 21.174500 24.328600 0.000019 0.000005 4.145150 -0.204904 -92.825300 22.291600 -0.000001 0.000005 2.240030 5.642230 -14.313300 12.994500 -0.242716 -4.980390 89.850100 0.439304 -71.160600 -5.348130 -0.000001 -0.000004 -61.836800 43.299400 -22.433700 -24.328900 0.000322 -0.000009 1.744580 -0.187466 -96.140700 -22.291500 -0.000108 -0.000004 18.808900 5.641990 -14.292500 -2.192480 -6.469440 -0.000000 -179.491000 -6.922560 -24.618800 39.081100 -0.000007 -0.000012 0.076969 -0.266523 16.108300 40.985400 -0.000006 -0.000013 3.804430 -3.307580 -70.574800 11.754300 -0.000000 0.000003 -0.006045 -0.071252 -19.476700 -2.192510 6.469440 -0.000001 -178.667000 3.990290 -172.876000 -39.081100 -0.002282 -0.040193 0.082426 -0.060728 52.515900 -40.985400 0.000008 0.000006 3.299960 -4.391420 -35.418200 -11.754300 -0.000006 -0.000006 -0.026291 -0.199933 -24.755600
0.000000 0.000000 0.000000 0.000000 0.000000 -0.000000 0.351148 89.657200 -30.765000 -89.444500 3.845570 176.903000 15.735700 0.000005 -0.000001 111.981000 82.804000 -112.527000 8.984550 -0.406207 -0.000000 5.625210 5.384170 -1.356940 16.377300 -0.000001 -0.000001 0.055883 -1.495900 0.642438 6.456720 -0.000001 -0.000000 -2.604960 -5.039010 2.428080 12.994200 -0.242716 4.980390 -87.227400 -6.813630 -67.795800 5.348090 -0.000007 -0.000001 -76.168200 30.261200 15.559300 24.328600 0.000019 0.000005 4.706140 -0.203066 -92.465300 22.291600 -0.000001 0.000005 3.167900 5.652290 -15.234500 12.994500 -0.242716 -4.980390 89.262600 2.122240 -70.835000 -5.348130 -0.000001 -0.000004 -63.339400 42.558700 -17.066500 -24.328900 0.000322 -0.000009 2.065050 -0.007176 -90.208900 -22.291500 -0.000108 -0.000004 18.582500 5.635310 -13.745400 -2.192480 -6.469440 -0.000000 175.585000 -5.373490 -30.278000 39.081100 -0.000007 -0.000012 0.187106 -0.302167 31.766400 40.985400 -0.000006 -0.000013 4.985550 -4.627280 -58.784300 11.754300 -0.000000 0.000003 -0.008338 -0.090777 -20.273700 -2.192510 6.469440 -0.000001 177.613000 4.700040 -178.377000 -39.081100 -0.002282 -0.040193 0.024730 -0.008203 69.210700 -40.985400 0.000008 0.000006 6.736830 -6.969160 -38.401700 -11.754300 -0.000006 -0.000006 -0.025984 -0.198430 -24.693400
